<?xml version="1.0" encoding="UTF-8"?>
<!DOCTYPE svg PUBLIC "-//W3C//DTD SVG 1.1//EN" "http://www.w3.org/Graphics/SVG/1.1/DTD/svg11.dtd">
<svg version="1.1" xmlns="http://www.w3.org/2000/svg" xmlns:xlink="http://www.w3.org/1999/xlink" x="0" y="0" width="82" height="82" viewBox="0, 0, 82, 82">
  <g id="Express Forms">
    <path d="M0,41 C0,63.644 18.356,82 41,82 C63.644,82 82,63.644 82,41 C82,18.356 63.644,0 41,0 C18.356,0 0,18.356 0,41 z" fill="#FF9100" id="Circle"/>
    <path d="M25.318,17.292 L62.946,7.21 C65.614,6.495 68.355,8.078 69.07,10.745 L80.658,53.991 C81.372,56.658 79.79,59.4 77.122,60.114 L39.494,70.197 C36.827,70.912 34.085,69.329 33.37,66.661 L21.783,23.416 C21.068,20.748 22.651,18.007 25.318,17.292 z" fill="#FFFFFF"/>
    <g id="Options">
      <path d="M66.375,26.445 L66.834,28.158 L41.144,35.041 L40.685,33.329 L66.375,26.445 z" fill="#FF9100"/>
      <path d="M68.325,33.724 L68.784,35.436 L43.094,42.32 L42.635,40.607 L68.325,33.724 z" fill="#FF9100"/>
      <path d="M70.333,41.217 L70.792,42.929 L45.102,49.813 L44.643,48.1 L70.333,41.217 z" fill="#FF9100"/>
      <path d="M37.059,30.821 L38.34,31.565 L34.776,37.773 L34.407,38.415 L33.766,38.044 L30.369,36.071 L31.107,34.786 L33.863,36.387 L37.059,30.821 z" fill="#FF9100"/>
      <path d="M38.961,37.921 L40.242,38.665 L36.678,44.872 L36.309,45.515 L35.669,45.143 L32.271,43.17 L33.009,41.886 L35.766,43.486 L38.961,37.921 z" fill="#FF9100"/>
    </g>
    <g>
      <path d="M39.552,20.239 L61.241,14.427 C62.194,14.172 63.197,14.826 63.481,15.887 L64.099,18.194 C64.383,19.255 63.842,20.323 62.889,20.578 L41.2,26.39 C40.247,26.645 39.244,25.991 38.959,24.93 L38.341,22.623 C38.057,21.562 38.599,20.494 39.552,20.239 z" fill="#FFFFFF"/>
      <path d="M61.563,13.674 C62.899,13.741 63.708,14.492 64.157,15.706 L64.775,18.013 C65.156,19.432 64.414,20.894 63.07,21.254 L41.381,27.066 C40.037,27.426 38.664,26.531 38.283,25.111 L37.665,22.804 C37.285,21.385 38.027,19.923 39.37,19.563 L61.06,13.751 L61.563,13.674 z M61.849,15.092 L61.422,15.103 L39.733,20.915 C39.171,21.066 38.829,21.739 39.017,22.442 L39.635,24.749 C39.824,25.452 40.456,25.864 41.018,25.714 L62.708,19.902 C63.27,19.751 63.611,19.078 63.423,18.375 L62.805,16.068 C62.463,15.328 62.73,15.697 61.849,15.092 z" fill="#FF9100"/>
    </g>
    <g>
      <path d="M11.643,38.316 L19.959,36.052" fill-opacity="0" stroke="#FFFFFF" stroke-width="3" stroke-linecap="round"/>
      <path d="M6.119,50.113 L22.547,45.711" fill-opacity="0" stroke="#FFFFFF" stroke-width="3" stroke-linecap="round"/>
      <path d="M12.407,58.859 L25.135,55.37" fill-opacity="0" stroke="#FFFFFF" stroke-width="3" stroke-linecap="round"/>
    </g>
    <path d="M48.483,54.6 L61.66,51.069 C62.727,50.783 63.824,51.416 64.11,52.483 L64.888,55.388 C65.174,56.455 64.541,57.551 63.474,57.837 L50.297,61.368 C49.23,61.654 48.133,61.021 47.847,59.954 L47.069,57.049 C46.783,55.982 47.416,54.885 48.483,54.6 z" fill="#FF9100"/>
  </g>
</svg>
