<?xml version="1.0" encoding="UTF-8"?>
<!DOCTYPE svg PUBLIC "-//W3C//DTD SVG 1.1//EN" "http://www.w3.org/Graphics/SVG/1.1/DTD/svg11.dtd">
<svg version="1.1" xmlns="http://www.w3.org/2000/svg" xmlns:xlink="http://www.w3.org/1999/xlink" x="0" y="0" width="100%" height="100%" viewBox="0, 0, 100, 100">
  <g id="Layer_1">
    <g id="Textarea">
      <path d="M92.222,15 C95.986,15 99,18.181 99,22.06 L99,85.94 C99,89.819 95.986,93 92.222,93 L15.778,93 C12.014,93 9,89.819 9,85.94 L9,22.06 C9,18.181 12.014,15 15.778,15 L92.222,15 z M92.222,19.034 L15.778,19.034 C14.265,19.035 13,20.369 13,22.06 L13,85.94 C13,87.631 14.265,88.966 15.778,88.966 L92.222,88.966 C93.736,88.966 95,87.631 95,85.94 L95,22.06 C95,20.369 93.736,19.035 92.222,19.034 z" fill="#000000"/>
      <path d="M22.459,25.833 C24.819,25.9 25.54,26.522 27.083,27.912 C28.229,26.49 29.856,26.001 31.708,25.833 L33.083,25.833 L33.083,28.31 L31.707,28.31 C29.935,28.31 28.498,29.604 28.497,31.2 L28.497,50.466 C28.498,52.062 29.935,53.356 31.708,53.356 L33.083,53.356 L33.083,55.833 L31.707,55.833 C29.348,55.766 28.627,55.144 27.083,53.755 C25.938,55.176 24.31,55.665 22.459,55.833 L21.083,55.833 L21.083,53.356 L22.459,53.356 C24.232,53.356 25.669,52.062 25.669,50.466 L25.669,31.2 C25.669,29.604 24.232,28.31 22.459,28.31 L21.083,28.31 L21.083,25.833 L22.459,25.833 z" fill="#000000"/>
    </g>
  </g>
</svg>
