<?xml version="1.0" encoding="UTF-8"?>
<!DOCTYPE svg PUBLIC "-//W3C//DTD SVG 1.1//EN" "http://www.w3.org/Graphics/SVG/1.1/DTD/svg11.dtd">
<svg version="1.1" xmlns="http://www.w3.org/2000/svg" xmlns:xlink="http://www.w3.org/1999/xlink" x="0" y="0" width="100%" height="100%" viewBox="0, 0, 100, 100">
  <g id="Layer_1">
    <g id="Hidden">
      <path d="M69.575,33.928 C79.747,37.485 88.233,44.458 96.296,51.377 L98,52.919 L96.237,54.394 C78.713,69.183 56.755,81.679 33.983,70.401 L36.955,67.355 C42.726,70.003 48.899,70.925 55.194,70.757 C69.075,69.824 81.45,61.34 91.869,52.802 C84.43,45.979 76.067,40.256 66.426,37.155 L69.575,33.928 z" fill="#000000"/>
      <path d="M53.119,31.054 C56.097,31.066 54.757,31.062 57.138,31.068 C61.807,31.599 59.054,31.195 65.356,32.524 L61.975,35.988 C58.693,35.267 60.381,35.581 56.909,35.063 C41.059,34.534 27.369,43.337 15.538,53.031 C20.947,57.797 26.692,62.274 33.15,65.527 L30.215,68.534 C23.205,64.789 17.041,59.692 11.112,54.456 L9.408,52.914 L11.17,51.439 C21.706,42.843 33.333,34.303 47.004,31.725 C49.018,31.275 51.065,31.141 53.119,31.054 z" fill="#000000"/>
      <path d="M60.537,43.575 C63.641,45.662 64.507,48.595 64.688,52.189 C64.688,58.666 59.438,63.917 52.961,63.917 C49.561,63.801 46.526,63.021 44.537,60.075 L60.537,43.575 z" fill="#000000"/>
      <path d="M79.338,24.302 C80.145,24.343 79.752,24.332 80.517,24.337 L81.184,24.768 C81.975,25.54 81.99,26.806 81.219,27.597 L28.719,81.397 C27.947,82.187 26.681,82.203 25.89,81.431 C25.1,80.66 25.084,79.394 25.856,78.603 L78.356,24.803 C78.696,24.555 78.915,24.358 79.338,24.302 z" fill="#000000"/>
    </g>
  </g>
</svg>
