<?xml version="1.0" encoding="UTF-8"?>
<!DOCTYPE svg PUBLIC "-//W3C//DTD SVG 1.1//EN" "http://www.w3.org/Graphics/SVG/1.1/DTD/svg11.dtd">
<svg version="1.1" xmlns="http://www.w3.org/2000/svg" xmlns:xlink="http://www.w3.org/1999/xlink" x="0" y="0" width="100%" height="100%" viewBox="0, 0, 100, 100">
  <g id="Layer_1">
    <g id="Email">
      <path d="M88,25.333 C91.866,25.333 95,28.467 95,32.333 L95,75 C95,78.866 91.866,82 88,82 L20,82 C16.134,82 13,78.866 13,75 L13,32.333 C13,28.467 16.134,25.333 20,25.333 L88,25.333 z M88,29.333 L20,29.333 C18.343,29.333 17,30.676 17,32.333 L17,75 C17,76.657 18.343,78 20,78 L88,78 C89.657,78 91,76.657 91,75 L91,32.333 C91,30.676 89.657,29.333 88,29.333 z" fill="#000000"/>
      <path d="M90.487,27.229 L92.962,30.371 L59.071,57.071 L59.248,56.914 C56.774,59.387 50.892,59.387 48.419,56.914 L48.588,57.065 L15.279,30.565 L17.769,27.435 L51.078,53.935 L51.167,54.005 L51.248,54.086 C52.159,54.997 55.508,54.997 56.419,54.086 L56.503,54.002 L56.596,53.929 L90.487,27.229 z" fill="#000000"/>
    </g>
  </g>
</svg>
