<?xml version="1.0" encoding="UTF-8"?>
<!DOCTYPE svg PUBLIC "-//W3C//DTD SVG 1.1//EN" "http://www.w3.org/Graphics/SVG/1.1/DTD/svg11.dtd">
<svg version="1.1" xmlns="http://www.w3.org/2000/svg" xmlns:xlink="http://www.w3.org/1999/xlink" x="0" y="0" width="100%" height="100%" viewBox="0, 0, 100, 100">
  <g id="Layer_1">
    <g id="Checkbox">
      <path d="M74,26.333 C77.866,26.333 81,29.467 81,33.333 L81,74 C81,77.866 77.866,81 74,81 L33.333,81 C29.467,81 26.333,77.866 26.333,74 L26.333,33.333 C26.333,29.467 29.467,26.333 33.333,26.333 L74,26.333 z M74,30.333 L33.333,30.333 C31.677,30.333 30.333,31.676 30.333,33.333 L30.333,74 C30.333,75.657 31.677,77 33.333,77 L74,77 C75.657,77 77,75.657 77,74 L77,33.333 C77,31.676 75.657,30.333 74,30.333 z" fill="#000000"/>
      <path d="M71.329,38.42 L74.171,41.235 L48.171,67.485 L46.757,68.913 L45.336,67.492 L35.336,57.492 L38.164,54.664 L46.743,63.243 L71.329,38.42 z" fill="#000000"/>
    </g>
  </g>
</svg>
