<?xml version="1.0" encoding="UTF-8"?>
<!DOCTYPE svg PUBLIC "-//W3C//DTD SVG 1.1//EN" "http://www.w3.org/Graphics/SVG/1.1/DTD/svg11.dtd">
<svg version="1.1" xmlns="http://www.w3.org/2000/svg" xmlns:xlink="http://www.w3.org/1999/xlink" x="0" y="0" width="100%" height="100%" viewBox="0, 0, 100, 100">
  <g id="Layer_1">
    <g id="Text">
      <path d="M91.921,32.5 C95.838,32.5 99,35.679 99,39.585 L99,69.415 C99,73.321 95.838,76.5 91.921,76.5 L16.079,76.5 C12.162,76.5 9,73.321 9,69.415 L9,39.585 C9,35.679 12.162,32.5 16.079,32.5 L91.921,32.5 z M91.921,36.5 L16.079,36.5 C14.411,36.5 13.045,37.874 13.045,39.585 L13.045,69.415 C13.045,71.126 14.411,72.5 16.079,72.5 L91.921,72.5 C93.589,72.5 94.955,71.126 94.955,69.415 L94.955,39.585 C94.955,37.874 93.589,36.5 91.921,36.5 z" fill="#000000"/>
      <path d="M61.567,20 C65.923,20.016 69.658,22.075 72.152,25.535 C74.517,21.897 78.483,20.201 82.736,20 L83.494,20 L83.494,24 L82.736,24 C78.009,24 74.225,27.519 74.225,31.796 L74.225,76.204 C74.225,80.481 78.009,84 82.736,84 L83.494,84 L83.494,88 L82.736,88 C78.38,87.983 74.646,85.925 72.152,82.465 C69.786,86.103 65.82,87.799 61.567,88 L60.809,88 L60.809,84 L61.567,84 C66.295,84 70.079,80.481 70.079,76.204 L70.079,31.796 C70.079,27.519 66.295,24 61.567,24 L60.809,24 L60.809,20 L61.567,20 z" fill="#000000"/>
    </g>
  </g>
</svg>
