<?xml version="1.0" encoding="UTF-8"?>
<!DOCTYPE svg PUBLIC "-//W3C//DTD SVG 1.1//EN" "http://www.w3.org/Graphics/SVG/1.1/DTD/svg11.dtd">
<svg version="1.1" xmlns="http://www.w3.org/2000/svg" xmlns:xlink="http://www.w3.org/1999/xlink" x="0" y="0" width="82" height="82" viewBox="0, 0, 82, 82">
  <g id="ExpressForms">
    <g>
      <path d="M22.285,57.391 C23.413,58.034 23.079,57.609 23.507,58.458 C23.721,59.24 23.261,60.047 22.479,60.262 L8.847,63.998 C8.065,64.213 7.258,63.753 7.044,62.971 C6.829,62.19 7.289,61.382 8.071,61.168 L21.703,57.431 L22.285,57.391 z" fill="#FFFFFF"/>
      <path d="M19.521,47.047 C20.646,47.696 20.314,47.269 20.737,48.121 C20.947,48.904 20.482,49.709 19.699,49.918 L2.104,54.633 C1.321,54.843 0.516,54.378 0.307,53.595 C0.097,52.813 0.561,52.008 1.344,51.798 L18.94,47.083 L19.521,47.047 z" fill="#FFFFFF"/>
      <path d="M16.744,36.701 C17.871,37.345 17.537,36.92 17.964,37.77 C18.177,38.552 17.715,39.359 16.933,39.571 L8.026,41.996 C7.244,42.209 6.438,41.748 6.225,40.966 C6.012,40.184 6.473,39.377 7.255,39.164 L16.162,36.739 L16.744,36.701 z" fill="#FFFFFF"/>
    </g>
    <path d="M63.661,7.089 C66.404,7.151 68.194,8.532 69.149,11.05 L81.56,57.369 C82.325,60.226 80.631,63.163 77.773,63.927 L37.471,74.727 C34.614,75.493 31.678,73.797 30.912,70.94 L18.501,24.621 C17.735,21.764 19.431,18.828 22.287,18.062 L62.59,7.263 L63.661,7.089 z M62.061,54.186 L61.212,54.24 L47.099,58.02 C45.956,58.327 45.278,59.502 45.584,60.645 L46.418,63.756 C46.724,64.899 47.899,65.577 49.041,65.271 L63.155,61.489 C64.298,61.182 64.976,60.008 64.67,58.866 L63.836,55.754 C63.218,54.511 63.703,55.134 62.061,54.186 z M70.501,43.687 L42.986,51.06 L43.477,52.894 L70.993,45.521 L70.501,43.687 z M36.9,40.157 L33.477,46.118 L30.525,44.403 L29.735,45.779 L33.373,47.892 L34.06,48.291 L34.455,47.602 L38.272,40.953 L36.9,40.157 z M68.351,35.662 L40.835,43.034 L41.327,44.869 L68.842,37.496 L68.351,35.662 z M34.862,32.553 L31.44,38.514 L28.488,36.799 L27.697,38.176 L31.336,40.288 L32.022,40.686 L32.418,39.999 L36.235,33.35 L34.862,32.553 z M66.262,27.866 L38.747,35.238 L39.238,37.073 L66.753,29.7 L66.262,27.866 z M61.108,14.186 L60.568,14.27 L37.338,20.495 C35.9,20.88 35.105,22.446 35.512,23.966 L36.174,26.437 C36.582,27.958 38.052,28.916 39.492,28.531 L62.722,22.306 C64.162,21.92 64.957,20.354 64.549,18.833 L63.887,16.363 C63.406,15.063 62.539,14.259 61.108,14.186 z M61.414,15.706 C62.358,16.354 62.072,15.959 62.439,16.751 L63.1,19.222 C63.302,19.975 62.937,20.696 62.335,20.858 L39.103,27.082 C38.501,27.243 37.824,26.802 37.622,26.049 L36.96,23.578 C36.759,22.825 37.125,22.104 37.727,21.943 L60.957,15.718 L61.414,15.706 z" fill="#FFFFFF"/>
  </g>
</svg>
